HIERARCHY
ROOT Hips
{
  OFFSET -21.6994 31.6921 0
  CHANNELS 6 Xposition Yposition Zposition Zrotation Xrotation Yrotation
  JOINT Bip01_Pelvis
  {
    OFFSET 0 0 0
    CHANNELS 6 Xposition Yposition Zposition Zrotation Xrotation Yrotation
    JOINT BN_Tail_01
    {
      OFFSET -7.25226 -1.74978 0
      CHANNELS 6 Xposition Yposition Zposition Zrotation Xrotation Yrotation
      JOINT BN_Tail_02
      {
        OFFSET 15.788 0 0
        CHANNELS 6 Xposition Yposition Zposition Zrotation Xrotation Yrotation
        JOINT BN_Tail_03
        {
          OFFSET 16.0015 0 0
          CHANNELS 6 Xposition Yposition Zposition Zrotation Xrotation Yrotation
          JOINT BN_Tail_04
          {
            OFFSET 16.1689 0 0
            CHANNELS 6 Xposition Yposition Zposition Zrotation Xrotation Yrotation
            End Site
            {
              OFFSET 0 0 0
            }
          }
        }
      }
    }
    JOINT Bip01_Spine
    {
      OFFSET 6.38383 2.70859 0.585432
      CHANNELS 6 Xposition Yposition Zposition Zrotation Xrotation Yrotation
      JOINT BN_Mane_02
      {
        OFFSET 6.12662 8.45826 0
        CHANNELS 6 Xposition Yposition Zposition Zrotation Xrotation Yrotation
        End Site
        {
          OFFSET 0 0 0
        }
      }
      JOINT Bip01_R_Thigh
      {
        OFFSET -7.04074 -2.18223 -5.47025
        CHANNELS 6 Xposition Yposition Zposition Zrotation Xrotation Yrotation
        JOINT Bip01_R_Calf
        {
          OFFSET 13.6591 0 0
          CHANNELS 6 Xposition Yposition Zposition Zrotation Xrotation Yrotation
          JOINT Bip01_R_HorseLink
          {
            OFFSET 9.07516 0 0
            CHANNELS 6 Xposition Yposition Zposition Zrotation Xrotation Yrotation
            JOINT Bip01_R_Foot
            {
              OFFSET 8.13856 0 0
              CHANNELS 6 Xposition Yposition Zposition Zrotation Xrotation Yrotation
              JOINT Bip01_R_Toe0
              {
                OFFSET 3.79737 6.30086 0
                CHANNELS 6 Xposition Yposition Zposition Zrotation Xrotation Yrotation
                JOINT Bip01_R_Toe0Nub
                {
                  OFFSET 0.838764 0 0
                  CHANNELS 6 Xposition Yposition Zposition Zrotation Xrotation Yrotation
                  End Site
                  {
                    OFFSET 0 0 0
                  }
                }
              }
            }
          }
        }
      }
      JOINT Bip01_L_Thigh
      {
        OFFSET -6.18667 -2.14873 5.3508
        CHANNELS 6 Xposition Yposition Zposition Zrotation Xrotation Yrotation
        JOINT Bip01_L_Calf
        {
          OFFSET 13.6591 0 0
          CHANNELS 6 Xposition Yposition Zposition Zrotation Xrotation Yrotation
          JOINT Bip01_L_HorseLink
          {
            OFFSET 9.07515 0 0
            CHANNELS 6 Xposition Yposition Zposition Zrotation Xrotation Yrotation
            JOINT Bip01_L_Foot
            {
              OFFSET 8.13856 0 0
              CHANNELS 6 Xposition Yposition Zposition Zrotation Xrotation Yrotation
              JOINT Bip01_L_Toe0
              {
                OFFSET 3.79737 6.30086 0
                CHANNELS 6 Xposition Yposition Zposition Zrotation Xrotation Yrotation
                JOINT Bip01_L_Toe0Nub
                {
                  OFFSET 0.838764 0 0
                  CHANNELS 6 Xposition Yposition Zposition Zrotation Xrotation Yrotation
                  End Site
                  {
                    OFFSET 0 0 0
                  }
                }
              }
            }
          }
        }
      }
      JOINT Bip01_Spine1
      {
        OFFSET 12.1687 -0.0105438 0
        CHANNELS 6 Xposition Yposition Zposition Zrotation Xrotation Yrotation
        JOINT BN_Mane_R_01
        {
          OFFSET -0.157498 5.09008 -6.54008
          CHANNELS 6 Xposition Yposition Zposition Zrotation Xrotation Yrotation
          End Site
          {
            OFFSET 0 0 0
          }
        }
        JOINT BN_Mane_R_02
        {
          OFFSET -0.1575 5.09007 6.54
          CHANNELS 6 Xposition Yposition Zposition Zrotation Xrotation Yrotation
          End Site
          {
            OFFSET 0 0 0
          }
        }
        JOINT BN_Mane_01
        {
          OFFSET 8.29709 8.50414 0
          CHANNELS 6 Xposition Yposition Zposition Zrotation Xrotation Yrotation
          End Site
          {
            OFFSET 0 0 0
          }
        }
        JOINT Bip01_Spine2
        {
          OFFSET 13.2802 -0.0100708 1.51992e-005
          CHANNELS 6 Xposition Yposition Zposition Zrotation Xrotation Yrotation
          JOINT Bip01_Neck
          {
            OFFSET 12.4891 -6.66662 0
            CHANNELS 6 Xposition Yposition Zposition Zrotation Xrotation Yrotation
            JOINT Bip01_R_Clavicle
            {
              OFFSET -7.4542 -2.82621 -1.17874
              CHANNELS 6 Xposition Yposition Zposition Zrotation Xrotation Yrotation
              JOINT Bip01_R_UpperArm
              {
                OFFSET 13.2557 0 0
                CHANNELS 6 Xposition Yposition Zposition Zrotation Xrotation Yrotation
                JOINT Bip01_R_Forearm
                {
                  OFFSET 12.8897 0 0
                  CHANNELS 6 Xposition Yposition Zposition Zrotation Xrotation Yrotation
                  JOINT Bip01_R_Hand
                  {
                    OFFSET 11.2622 0 0
                    CHANNELS 6 Xposition Yposition Zposition Zrotation Xrotation Yrotation
                    JOINT Bip01_R_Finger0
                    {
                      OFFSET 3.98015 -0.208661 -0.0949803
                      CHANNELS 6 Xposition Yposition Zposition Zrotation Xrotation Yrotation
                      JOINT Bip01_R_Finger0Nub
                      {
                        OFFSET 6.57561 0 0
                        CHANNELS 6 Xposition Yposition Zposition Zrotation Xrotation Yrotation
                        End Site
                        {
                          OFFSET 0 0 0
                        }
                      }
                    }
                  }
                }
              }
            }
            JOINT Bip01_L_Clavicle
            {
              OFFSET -7.4541 -2.82679 1.17708
              CHANNELS 6 Xposition Yposition Zposition Zrotation Xrotation Yrotation
              JOINT Bip01_L_UpperArm
              {
                OFFSET 13.2558 0 0
                CHANNELS 6 Xposition Yposition Zposition Zrotation Xrotation Yrotation
                JOINT Bip01_L_Forearm
                {
                  OFFSET 12.8897 0 0
                  CHANNELS 6 Xposition Yposition Zposition Zrotation Xrotation Yrotation
                  JOINT Bip01_L_Hand
                  {
                    OFFSET 11.2622 0 0
                    CHANNELS 6 Xposition Yposition Zposition Zrotation Xrotation Yrotation
                    JOINT Bip01_L_Finger0
                    {
                      OFFSET 3.98014 -0.20866 0.0949764
                      CHANNELS 6 Xposition Yposition Zposition Zrotation Xrotation Yrotation
                      JOINT Bip01_L_Finger0Nub
                      {
                        OFFSET 6.57562 0 0
                        CHANNELS 6 Xposition Yposition Zposition Zrotation Xrotation Yrotation
                        End Site
                        {
                          OFFSET 0 0 0
                        }
                      }
                    }
                  }
                }
              }
            }
            JOINT Bip01_Neck1
            {
              OFFSET 4.19352 -0.00332451 0
              CHANNELS 6 Xposition Yposition Zposition Zrotation Xrotation Yrotation
              JOINT Bip01_Head
              {
                OFFSET 4.17604 0.298252 0
                CHANNELS 6 Xposition Yposition Zposition Zrotation Xrotation Yrotation
                JOINT BN_Eye_R_01
                {
                  OFFSET 6.53258 -3.90694 -2.55361
                  CHANNELS 6 Xposition Yposition Zposition Zrotation Xrotation Yrotation
                  End Site
                  {
                    OFFSET 0 0 0
                  }
                }
                JOINT BN_Eye_L_01
                {
                  OFFSET 6.5326 -3.90694 2.55371
                  CHANNELS 6 Xposition Yposition Zposition Zrotation Xrotation Yrotation
                  End Site
                  {
                    OFFSET 0 0 0
                  }
                }
                JOINT BN_Ear_R_01
                {
                  OFFSET 1.75934 -4.1584 -4.45634
                  CHANNELS 6 Xposition Yposition Zposition Zrotation Xrotation Yrotation
                  End Site
                  {
                    OFFSET 0 0 0
                  }
                }
                JOINT BN_Ear_L_01
                {
                  OFFSET 1.75933 -4.15841 4.45616
                  CHANNELS 6 Xposition Yposition Zposition Zrotation Xrotation Yrotation
                  End Site
                  {
                    OFFSET 0 0 0
                  }
                }
                JOINT BN_Beard_L_01
                {
                  OFFSET 11.2964 -1.06183 2.32054
                  CHANNELS 6 Xposition Yposition Zposition Zrotation Xrotation Yrotation
                  End Site
                  {
                    OFFSET 0 0 0
                  }
                }
                JOINT BN_Beard_R_01
                {
                  OFFSET 11.2964 -1.06182 -2.32036
                  CHANNELS 6 Xposition Yposition Zposition Zrotation Xrotation Yrotation
                  End Site
                  {
                    OFFSET 0 0 0
                  }
                }
                JOINT BN_Mouth_0
                {
                  OFFSET 1.3149 1.30001 0
                  CHANNELS 6 Xposition Yposition Zposition Zrotation Xrotation Yrotation
                  End Site
                  {
                    OFFSET 0 0 0
                  }
                }
                JOINT Bip01_HeadNub
                {
                  OFFSET 12.6869 0 0
                  CHANNELS 6 Xposition Yposition Zposition Zrotation Xrotation Yrotation
                  End Site
                  {
                    OFFSET 0 0 0
                  }
                }
              }
            }
          }
        }
      }
    }
  }
}
MOTION
Frames:	4
Frame Time:	0.0333333
-21.7013 34.747 0 -164.735 -90 -90 0 -5.68434e-014 0 -85.8684 -23.6374 -91.6058 -7.25225 -1.74978 4.44089e-016 23.6057 1.8399 -170.414 15.788 -7.10543e-015 -4.44089e-016 23.2077 -6.24137 -4.68334 16.0015 7.10543e-015 0 7.69723 -5.45048 -15.7398 16.1689 3.8147e-006 1.90735e-006 28.8584 12.4313 -15.2584 6.95149 -0.0955811 -0.390434 3.1866 -3.61593 4.32288 6.12661 8.45826 0 -97.0846 -0.0595174 -178.428 -6.53879 0.799252 -5.50531 -77.5249 -4.55396 177.521 13.6591 7.10543e-015 -9.53674e-007 -60.8884 3.46246e-006 8.79033e-006 9.07516 5.72205e-006 -1.77636e-015 36.1377 -5.84577e-009 -4.05483e-007 8.13855 0 -9.53674e-007 -112.601 2.41517 -5.34885 3.79738 6.30087 8.88178e-016 89.9962 -1.15317e-009 -8.2684e-010 0.838772 -7.62939e-006 0 -5.97551e-007 9.74204e-011 -2.01504e-010 -7.35587 0.114088 5.29694 -77.338 2.16855 -179.639 13.6591 3.8147e-006 8.88178e-016 -79.6024 1.72584e-006 9.88609e-006 9.07515 -9.53674e-007 -4.76837e-007 36.1745 8.14918e-006 -5.92899e-006 8.13857 0 -8.88178e-016 -89.1614 -0.504643 1.33418 3.79737 6.30086 8.88178e-016 88.2634 -1.98739e-010 -6.14999e-010 0.83878 -3.8147e-006 8.88178e-016 179.96 -9.96835e-006 -7.10091e-005 12.169 -0.0105667 5.55112e-017 -2.66162 0.00301992 0.472316 -0.157498 5.09008 -6.54007 -92.7406 -0.022027 -167.965 -0.157498 5.09007 6.54 87.255 -0.000389819 12.0139 8.29709 8.50413 0 -91.651 -0.0231628 -179.978 13.2799 -0.0100098 2.98023e-008 -10.4046 2.77341 -4.17449 12.4887 -6.66656 2.98023e-008 -11.0928 -0.0180893 0.00526928 -7.07654 -3.6679 -1.18018 -168.941 -53.3025 123.264 13.2557 1.90735e-006 0 140.441 63.631 -179.062 12.8897 -3.8147e-006 -1.19209e-007 -49.6532 -1.23494e-005 -1.37082e-005 11.2622 1.90735e-006 1.19209e-007 178.375 83.9981 177.241 3.98014 -0.208661 -0.0949765 0.689704 -12.1024 -27.8988 6.57562 -8.88178e-016 1.78814e-007 -179.96 1.70698e-005 -2.05133e-005 -7.07751 -3.66948 1.17565 -169.002 66.9891 -96.0004 13.2557 3.55271e-015 1.90735e-006 63.5831 -52.7488 95.1546 12.8897 2.98023e-007 8.88178e-016 -55.3033 -7.26754e-007 -4.53997e-007 11.2623 -9.53674e-007 -2.38419e-007 165.736 -82.1208 -178.902 3.98015 -0.208661 0.0949764 -8.58097 6.18904 48.6035 6.57562 1.19209e-007 0 1.25174e-007 7.00523e-009 2.98721e-008 4.1942 -0.00331497 2.98023e-008 6.62372 0.0953648 0.134602 4.17604 0.298248 1.66533e-016 19.7296 -1.97649 3.70622 6.53259 -3.90694 -2.55361 133.025 18.1401 163.594 6.53259 -3.90695 2.55371 -46.9761 18.1112 -16.4184 1.75934 -4.15841 -4.45634 24.6845 -39.5498 146.856 1.75934 -4.15841 4.45616 -155.299 -39.5509 -33.1283 11.2964 -1.06183 2.32054 151.404 -8.0618 -90.1342 11.2964 -1.06183 -2.32035 -28.5128 -7.97353 90.2576 1.31489 1.30001 -2.77556e-017 -163.423 -0.045166 -179.993 12.6869 3.8147e-006 -2.77556e-017 -3.18873e-007 4.42059e-009 -2.94079e-009 
-21.6954 35.3887 -1.11874e-008 -0 -90 75.0444 0 -5.68434e-014 0 -85.5135 -22.0731 -92.765 -7.25225 -1.74978 2.66454e-015 28.8954 2.45801 -170.086 15.788 -3.55271e-015 0 21.3374 -5.89125 -4.77918 16.0015 0 0 8.74937 -4.41631 -16.9216 16.1689 3.8147e-006 1.90735e-006 28.4471 11.8576 -16.9903 6.94072 0.0935544 -0.547373 4.47688 -3.84698 5.65728 6.12661 8.45826 7.20274e-010 -96.644 -0.193395 -178.829 -6.416 0.775238 -5.4984 -85.0848 -3.75901 175.482 13.6591 1.06581e-014 -9.53674e-007 -70.8884 2.92568e-006 9.0735e-006 9.07516 5.72205e-006 -2.13163e-014 46.6105 3.57444e-007 -2.31379e-007 8.13855 7.10543e-015 -9.53674e-007 -117.159 0.867233 -6.40542 3.79738 6.30087 1.02318e-011 89.9962 -1.73989e-010 -9.19885e-010 0.838772 -7.62939e-006 -2.66453e-015 -5.97551e-007 9.74204e-011 -2.01504e-010 -7.48406 0.0467137 5.27904 -78.4287 2.75252 -179.016 13.6591 3.8147e-006 5.32907e-015 -78.7657 1.86543e-006 9.9198e-006 9.07515 -9.53674e-007 -4.76837e-007 43.2382 7.34058e-006 -6.89141e-006 8.13857 -1.42109e-014 -1.77636e-015 -98.5985 -0.484912 2.11167 3.79737 6.30086 2.60698e-011 88.3447 -0.00244783 -7.07375e-005 0.83878 -3.8147e-006 0 179.96 -9.96835e-006 -7.10091e-005 12.169 -0.0105667 -8.99447e-013 0.496354 0.0225974 0.372145 -0.157498 5.09008 -6.54007 -92.7406 -0.0220269 -167.965 -0.157498 5.09007 6.54 87.255 -0.000389819 12.0139 8.29709 8.50413 5.95285e-009 -91.651 -0.0231628 -179.978 13.2799 -0.0100098 2.97953e-008 -10.4428 2.79028 -4.08272 12.4887 -6.66656 3.97876e-008 -11.9808 -0.0189185 0.00852112 -7.0194 -3.77706 -1.1806 -168.047 -54.9418 117.972 13.2557 1.90735e-006 6.03961e-014 141.581 67.2747 179.727 12.8897 -3.8147e-006 -1.19209e-007 -48.9442 -2.00113e-005 -6.90722e-006 11.2622 1.90735e-006 1.19209e-007 156.639 84.1573 -160.296 3.98014 -0.208661 -0.0949765 -4.6311 -11.073 -33.8009 6.57562 -3.9968e-015 1.78814e-007 -179.96 1.707e-005 -2.05131e-005 -7.02058 -3.77891 1.17523 -168.113 68.5393 -94.575 13.2557 -5.32907e-015 1.90735e-006 63.9193 -46.5036 92.2076 12.8897 2.98023e-007 1.33227e-015 -57.8652 -6.75009e-007 -5.96901e-007 11.2623 -9.53674e-007 -2.38419e-007 150.762 -82.0995 168.155 3.98015 -0.208661 0.0949764 -9.46878 4.53444 53.4311 6.57562 1.19209e-007 7.10542e-015 1.25174e-007 7.00523e-009 2.98721e-008 4.1942 -0.00331497 2.98057e-008 4.68683 0.0947958 0.186961 4.17604 0.298248 -3.74037e-010 18.8881 -2.36673 3.64109 6.53259 -3.90694 -2.55361 133.025 18.1401 163.594 6.53259 -3.90695 2.55371 -46.9761 18.1112 -16.4184 1.75934 -4.15841 -4.45634 24.6879 -39.5654 148.467 1.75934 -4.15841 4.45616 -155.304 -39.5417 -31.7227 11.2964 -1.06183 2.32054 151.49 -9.94719 -89.9408 11.2964 -1.06183 -2.32035 -28.3391 -9.9325 90.728 1.31489 1.30001 1.34721e-010 -164.206 -0.0480957 -179.993 12.6869 3.8147e-006 -3.4972e-015 -3.18873e-007 4.42059e-009 -2.94079e-009 
-21.6779 35.9489 -2.0855e-008 -165.202 -90 -90 0 -5.68434e-014 0 -84.8304 -18.6474 -93.9787 -7.25225 -1.74978 2.66454e-015 34.9152 3.31784 -170.127 15.788 1.06581e-014 -8.88178e-016 18.068 -5.25452 -4.77399 16.0015 -3.55271e-015 6.21725e-015 11.9296 -3.72174 -17.15 16.1689 3.8147e-006 1.90735e-006 29.363 11.0124 -18.2066 6.90645 0.506534 -0.725447 7.15266 -4.28486 7.17627 6.12661 8.45826 2.42394e-009 -95.4746 -0.469222 -179.881 -6.27886 0.707992 -5.48984 -95.6253 -1.73634 172.653 13.6591 -7.10543e-015 -9.53674e-007 -87.3123 -4.10863e-007 1.00709e-005 9.07516 5.72205e-006 -5.15143e-014 64.5292 7.69966e-007 1.45819e-007 8.13855 7.10543e-015 -9.53674e-007 -120.176 -2.38449 -7.65606 3.79738 6.30087 -7.2192e-011 89.9962 -4.19716e-010 -1.70319e-010 0.838772 -7.62939e-006 -3.55271e-015 -5.97551e-007 9.74204e-011 -2.01504e-010 -7.6317 -0.102937 5.2497 -78.4004 3.48907 -178.155 13.6591 3.8147e-006 1.5099e-014 -73.5729 2.79323e-006 9.80296e-006 9.07515 -9.53674e-007 -4.76837e-007 51.7818 6.08386e-006 -7.89626e-006 8.13857 -1.42109e-014 8.88178e-016 -108.235 -0.116022 3.15751 3.79737 6.30086 -1.97611e-011 88.4245 -0.00487855 -0.000134186 0.83878 -3.8147e-006 -1.77636e-015 179.96 -9.96835e-006 -7.10091e-005 12.169 -0.0105667 -3.02808e-012 4.36546 0.0346168 0.173666 -0.157498 5.09008 -6.54007 -92.7406 -0.0220269 -167.965 -0.157497 5.09007 6.54 87.255 -0.00038914 12.0139 8.29709 8.50413 1.28124e-008 -91.651 -0.0231628 -179.978 13.2799 -0.0100098 2.97872e-008 -9.90633 2.68157 -3.94686 12.4887 -6.66656 5.46354e-008 -12.9179 -0.0191721 0.00871957 -6.95721 -3.89307 -1.1809 -167.106 -57.1593 111.954 13.2557 1.90735e-006 9.9476e-014 139.966 71.1895 -177.852 12.8897 -3.8147e-006 -1.19209e-007 -51.1645 -1.15528e-005 -1.36469e-005 11.2622 1.90735e-006 1.19209e-007 129.874 82.9385 -131.252 3.98014 -0.208661 -0.0949765 -11.2094 -9.22833 -37.4758 6.57562 1.77636e-015 1.78814e-007 -179.96 1.70701e-005 -2.0513e-005 -6.9571 -3.89342 1.17493 -167.183 69.9687 -93.6845 13.2557 1.77636e-015 1.90735e-006 65.7124 -43.7771 90.6002 12.8897 2.98023e-007 8.88178e-016 -53.8434 -5.50339e-007 -5.435e-007 11.2623 -9.53674e-007 -2.38419e-007 124.229 -81.8126 146.658 3.98015 -0.208661 0.0949764 -9.63106 2.17715 59.3755 6.57562 1.19209e-007 1.82076e-014 1.25174e-007 7.00523e-009 2.98721e-008 4.1942 -0.00331497 2.98105e-008 1.09112 0.0840767 0.25516 4.17604 0.298248 -8.03389e-010 19.4259 -2.70762 3.59413 6.53259 -3.90694 -2.55361 133.025 18.1401 163.594 6.53259 -3.90695 2.55371 -46.9761 18.1112 -16.4184 1.75934 -4.15841 -4.45634 24.6917 -39.5803 150.048 1.75933 -4.15841 4.45616 -155.309 -39.5326 -30.3445 11.2964 -1.06183 2.32054 151.582 -11.7957 -89.7465 11.2964 -1.06183 -2.32035 -28.1516 -11.8517 91.1992 1.31489 1.30001 6.46385e-010 -164.974 -0.0509644 -179.993 12.6869 3.8147e-006 1.83187e-015 -3.18873e-007 4.42059e-009 -2.94079e-009 
-21.6528 36.3838 -2.82694e-008 -165.065 -90 -89.8454 0 -5.68434e-014 0 -83.863 -13.7978 -95.248 -7.25225 -1.74978 0 41.2987 4.3298 -170.436 15.788 1.24345e-014 -7.77156e-016 13.6098 -4.36538 -4.67218 16.0015 -3.55271e-015 1.15463e-014 16.0699 -3.14742 -16.5951 16.1689 3.8147e-006 1.90735e-006 30.7213 10.241 -19.1395 6.8158 1.08708 -0.917369 10.8166 -4.83256 8.80135 6.12661 8.45826 5.11445e-009 -93.6996 -0.853699 178.549 -6.13245 0.590878 -5.47915 -106.86 0.83175 170.228 13.6591 -1.06581e-014 -9.53674e-007 -104.092 -3.15548e-006 1.03427e-005 9.07516 5.72205e-006 -8.17124e-014 82.7851 7.34793e-007 5.86407e-007 8.13855 0 -9.53674e-007 -120.554 -6.25393 -8.18204 3.79738 6.30087 -3.6664e-011 89.9962 -1.40874e-009 -4.93437e-010 0.838772 -7.62939e-006 -5.32907e-015 -5.97551e-007 9.74204e-011 -2.01504e-010 -7.78768 -0.323732 5.20961 -79.1527 4.41725 -177.044 13.6591 3.8147e-006 2.66454e-014 -68.5193 3.7203e-006 9.64069e-006 9.07515 -9.53674e-007 -4.76837e-007 60.2 4.62624e-006 -8.70004e-006 8.13857 -7.10543e-015 -1.77636e-015 -116.736 0.542276 4.39494 3.79737 6.30086 -2.5608e-011 88.505 -0.00730946 -0.000190773 0.83878 -3.8147e-006 -4.44089e-015 179.96 -9.96835e-006 -7.10091e-005 12.169 -0.0105667 -6.38922e-012 8.79003 0.0378275 -0.101105 -0.157497 5.09008 -6.54007 -92.7406 -0.0220269 -167.965 -0.157497 5.09007 6.54 87.255 -0.00038914 12.0139 8.29709 8.50413 1.85067e-008 -91.651 -0.0231628 -179.977 13.2799 -0.0100098 2.97805e-008 -8.82021 2.48495 -3.77709 12.4887 -6.66656 7.28454e-008 -13.7242 -0.0193258 0.00858317 -6.90225 -3.99011 -1.18087 -166.301 -59.7446 106.231 13.2557 1.90735e-006 1.38556e-013 134.255 74.6274 -170.283 12.8897 -3.8147e-006 -1.19209e-007 -54.5387 -1.02391e-005 -1.37549e-005 11.2622 1.90735e-006 1.19209e-007 115.786 80.601 -114.56 3.98014 -0.208661 -0.0949765 -17.0341 -7.11028 -40.7476 6.57563 -6.21724e-015 1.78814e-007 -179.96 1.70701e-005 -2.0513e-005 -6.90236 -3.99071 1.17496 -166.384 71.3803 -93.0045 13.2557 -7.10543e-015 1.90735e-006 68.1134 -45.5848 89.5855 12.8897 2.98023e-007 -1.77636e-015 -42.2862 -5.16078e-007 -3.75134e-007 11.2622 -9.53674e-007 -2.38419e-007 93.3628 -80.6204 124.015 3.98015 -0.208661 0.0949764 -9.28395 -0.467656 65.8763 6.57562 1.19209e-007 1.5099e-014 1.25174e-007 7.00523e-009 2.98721e-008 4.1942 -0.00331497 2.98169e-008 -3.05675 0.062208 0.320362 4.17604 0.298248 -1.19067e-009 20.1973 -2.96138 3.54824 6.53259 -3.90694 -2.55361 133.025 18.1401 163.594 6.53259 -3.90695 2.55371 -46.9761 18.1112 -16.4184 1.75934 -4.15841 -4.45634 24.6961 -39.5954 151.644 1.75933 -4.15841 4.45616 -155.315 -39.5236 -28.9528 11.2964 -1.06183 2.32054 151.681 -13.6621 -89.5461 11.2964 -1.06183 -2.32035 -27.9445 -13.7885 91.6847 1.31489 1.30001 1.75244e-009 -165.749 -0.0538483 -179.993 12.6869 3.8147e-006 8.50708e-015 -3.18873e-007 4.42059e-009 -2.94079e-009 
